#!OML:ASF X:\für Bonn\!DataBase\2005_08_11_Bastian_Final\c3d\Bastian.ASF
:FULLY-SPECIFIED
:DEGREES
47
root -6.87569 16.7525 2.57348 164.017 -25.2033 -174.601
lowerback 16.2108 -2.01902 -2.83537
upperback 8.4384 -4.19251 2.40391
thorax 0.291963 -2.75292 4.77034
lowerneck 1.36429 -13.2776 -3.86894
upperneck -13.5715 -17.5446 14.1875
head -2.60905 -9.53974 5.13982
rclavicle 5.32991e-014 -1.31198e-014
rhumerus -391.92 25.4668 -447.832
rradius 105.334
rwrist -5.54139
rhand -45.9508 743.28
rfingers 7.12502
rthumb -18.6984 -5.84174
lclavicle 5.32991e-014 -1.31198e-014
lhumerus 24.3712 -32.2062 70.3566
lradius 88.6782
lwrist -137.927
lhand -25.2405 12.1803
lfingers 7.12502
lthumb 1.27926 42.1563
rfemur -18.3917 2.37841 15.6816
rtibia 51.5071
rfoot -8.82003 -2.69663
rtoes -15.5365
lfemur 16.4035 0.641259 -13.7386
ltibia 29.3305
lfoot -26.2196 -9.34024
ltoes -7.42905
48
root -6.86354 16.7368 2.56387 163.863 -25.8075 -174.436
lowerback 16.2538 -2.00157 -2.65256
upperback 8.39879 -4.13159 2.45371
thorax 0.211983 -2.71025 4.71606
lowerneck 1.71339 -13.5294 -4.05499
upperneck -13.6573 -17.8597 14.4221
head -2.62225 -9.70382 5.25447
rclavicle -9.6659e-015 -3.77691e-015
rhumerus -390.405 25.5451 -446.611
rradius 106.109
rwrist -5.09466
rhand -46.3398 744.135
rfingers 7.12502
rthumb -19.0725 -4.95031
lclavicle -9.6659e-015 -3.77691e-015
lhumerus 26.8427 -32.1452 69.2393
lradius 88.8156
lwrist -137.738
lhand -24.8597 12.5657
lfingers 7.12502
lthumb 1.64712 42.5391
rfemur -18.3558 3.27541 15.4888
rtibia 51.2297
rfoot -8.89737 -2.14431
rtoes -15.7853
lfemur 16.0741 0.320097 -13.549
ltibia 29.9412
lfoot -26.4162 -9.78522
ltoes -7.33009
49
root -6.85137 16.7176 2.55155 163.683 -26.4253 -174.319
lowerback 16.3629 -1.98877 -2.54623
upperback 8.34373 -4.08854 2.51955
thorax 0.0900165 -2.67874 4.72988
lowerneck 2.04063 -13.7747 -4.29353
upperneck -13.6743 -18.1709 14.6061
head -2.61061 -9.85633 5.35541
rclavicle 2.77429e-014 -3.07122e-014
rhumerus -388.853 25.6469 -445.292
rradius 106.788
rwrist -4.57891
rhand -46.8255 744.909
rfingers 7.12502
rthumb -19.5395 -4.12913
lclavicle 2.77429e-014 -3.07122e-014
lhumerus 29.2717 -31.9978 68.1415
lradius 88.8711
lwrist -137.488
lhand -24.4968 12.968
lfingers 7.12502
lthumb 1.99752 42.9384
rfemur -18.2963 4.06828 15.2566
rtibia 51.0033
rfoot -9.02056 -1.59755
rtoes -16.2277
lfemur 15.7771 -0.0353836 -13.4268
ltibia 30.5983
lfoot -26.6752 -10.147
ltoes -7.40551
50
root -6.8393 16.6959 2.53801 163.499 -27.0422 -174.205
lowerback 16.4732 -1.96998 -2.4315
upperback 8.31481 -4.04093 2.57281
thorax -0.0066905 -2.64739 4.7236
lowerneck 2.26061 -14.0214 -4.43424
upperneck -13.6929 -18.488 14.749
head -2.59409 -10.0138 5.42313
rclavicle -1.82385e-014 2.61899e-014
rhumerus -387.212 25.6313 -443.923
rradius 107.409
rwrist -4.13702
rhand -47.2403 745.839
rfingers 7.12502
rthumb -19.9382 -3.15829
lclavicle -1.82385e-014 2.61899e-014
lhumerus 31.7826 -31.7841 66.9318
lradius 88.9344
lwrist -137.209
lhand -24.0935 13.2977
lfingers 7.12502
lthumb 2.38704 43.2641
rfemur -18.2575 4.75932 15.0161
rtibia 50.8215
rfoot -9.15017 -1.0479
rtoes -16.6649
lfemur 15.4684 -0.444059 -13.3441
ltibia 31.2983
lfoot -26.9926 -10.4588
ltoes -7.55696
51
root -6.82866 16.6709 2.52374 163.307 -27.5841 -174.076
lowerback 16.6101 -1.9563 -2.27864
upperback 8.27553 -3.99481 2.63165
thorax -0.130224 -2.61536 4.70409
lowerneck 2.45303 -14.2583 -4.63642
upperneck -13.66 -18.7968 14.8882
head -2.55195 -10.1616 5.49139
rclavicle 9.92432e-014 -4.0403e-014
rhumerus -385.481 25.613 -442.517
rradius 107.905
rwrist -3.5925
rhand -47.6893 746.714
rfingers 7.12502
rthumb -20.3698 -2.23809
lclavicle 9.92432e-014 -4.0403e-014
lhumerus 34.1997 -31.4576 65.7791
lradius 88.921
lwrist -136.893
lhand -23.7268 13.6493
lfingers 7.12502
lthumb 2.74118 43.6114
rfemur -18.2711 5.38747 14.8034
rtibia 50.6824
rfoot -9.24683 -0.46372
rtoes -17.1585
lfemur 15.1543 -0.829995 -13.2465
ltibia 32.0501
lfoot -27.3116 -10.7662
ltoes -7.44152
52
root -6.81728 16.6449 2.50961 163.143 -28.128 -173.99
lowerback 16.7805 -1.93058 -2.13653
upperback 8.22922 -3.93299 2.66599
thorax -0.281176 -2.57407 4.66471
lowerneck 2.5644 -14.4941 -4.8165
upperneck -13.587 -19.1068 15.049
head -2.48338 -10.3103 5.55215
rclavicle 5.82004e-014 -3.14577e-014
rhumerus -383.722 25.4648 -441.148
rradius 108.305
rwrist -3.00793
rhand -48.1503 747.681
rfingers 7.12502
rthumb -20.8128 -1.22281
lclavicle 5.82004e-014 -3.14577e-014
lhumerus 36.5477 -31.0711 64.6251
lradius 88.9441
lwrist -136.549
lhand -23.4153 14.003
lfingers 7.12502
lthumb 3.04205 43.961
rfemur -18.3215 5.96055 14.5449
rtibia 50.5858
rfoot -9.36077 0.129638
rtoes -17.4803
lfemur 14.8001 -1.2493 -13.227
ltibia 32.8592
lfoot -27.7052 -10.9256
ltoes -7.61475
53
root -6.80612 16.6153 2.49379 162.939 -28.6377 -173.852
lowerback 16.9688 -1.92171 -1.9705
upperback 8.18675 -3.89274 2.73529
thorax -0.433707 -2.54574 4.65301
lowerneck 2.7133 -14.716 -5.03436
upperneck -13.5667 -19.3997 15.1867
head -2.43606 -10.4504 5.61772
rclavicle -7.37833e-014 6.95746e-015
rhumerus -381.896 25.332 -439.697
rradius 108.628
rwrist -2.3973
rhand -48.5894 748.591
rfingers 7.12502
rthumb -21.2346 -0.265957
lclavicle -7.37833e-014 6.95746e-015
lhumerus 38.7735 -30.5494 63.5647
lradius 89.0144
lwrist -136.182
lhand -23.1133 14.2696
lfingers 7.12502
lthumb 3.33365 44.2233
rfemur -18.3716 6.46287 14.3406
rtibia 50.5269
rfoot -9.50129 0.693102
rtoes -17.8333
lfemur 14.4435 -1.64891 -13.1457
ltibia 33.7212
lfoot -28.0864 -11.1269
ltoes -7.74843
54
root -6.79486 16.5841 2.47652 162.746 -29.1379 -173.736
lowerback 17.1601 -1.90122 -1.79815
upperback 8.17269 -3.84051 2.78639
thorax -0.560134 -2.51388 4.61516
lowerneck 2.6753 -14.9363 -5.18701
upperneck -13.4653 -19.6948 15.2992
head -2.3428 -10.5878 5.64511
rclavicle -3.57688e-014 1.19147e-014
rhumerus -379.942 25.0949 -438.249
rradius 108.836
rwrist -1.75895
rhand -49.0228 749.512
rfingers 7.12502
rthumb -21.6509 0.702708
lclavicle -3.57688e-014 1.19147e-014
lhumerus 41.0021 -29.9425 62.5492
lradius 89.1239
lwrist -135.802
lhand -22.8676 14.4619
lfingers 7.12502
lthumb 3.57098 44.4117
rfemur -18.4484 6.86792 14.108
rtibia 50.5171
rfoot -9.60797 1.25944
rtoes -17.9342
lfemur 14.0637 -2.0738 -13.1009
ltibia 34.6393
lfoot -28.4963 -11.2737
ltoes -7.9418
55
root -6.78419 16.5506 2.45805 162.564 -29.6326 -173.656
lowerback 17.4095 -1.89365 -1.66509
upperback 8.11338 -3.80413 2.83448
thorax -0.760892 -2.48652 4.60482
lowerneck 2.73262 -15.1419 -5.37314
upperneck -13.3815 -19.9704 15.391
head -2.27028 -10.7146 5.68061
rclavicle 5.05814e-015 1.91579e-014
rhumerus -378.083 24.8856 -436.839
rradius 109.013
rwrist -1.1283
rhand -49.448 750.409
rfingers 7.12502
rthumb -22.0592 1.64762
lclavicle 5.05814e-015 1.91579e-014
lhumerus 43.0251 -29.2412 61.6462
lradius 89.2631
lwrist -135.377
lhand -22.6411 14.6572
lfingers 7.12502
lthumb 3.78966 44.6033
rfemur -18.5437 7.13202 13.8332
rtibia 50.5511
rfoot -9.70973 1.85477
rtoes -18.1067
lfemur 13.6728 -2.49664 -13.1069
ltibia 35.6137
lfoot -28.9126 -11.3412
ltoes -8.14044
